#!OML:ASF F:\VICON\USERDATA\INSTALL\rory3\rory3.ASF
:FULLY-SPECIFIED
:DEGREES
53
root -1.1040803452580044 17.285256118701266 -1.0646989560789901 4.325520668349029 -2.635733425046469 -1.0898324095067968
lfemur -12.788936065113086 7.154419103437289 -21.19948588970799
ltibia 64.09937051498933
lfoot -7.028820410262792 -10.226412291817137
ltoes 2.2139588370906136
rfemur -34.185029397110945 2.5244979468618376 25.728033041715143
rtibia 58.028625888609106
rfoot -9.547107092452944 -12.12236321048691
rtoes -0.11814686734819935
lowerback 16.01170194656264 1.2319656777017534 0.7286346247533887
upperback -0.06401971865110906 1.8249322348799242 1.3326391551267813
thorax -9.184357796871842 0.9373139142280382 0.16683419806705616
lowerneck -21.59184587522952 -4.499860109566483 -1.4984733186448618
upperneck 12.230798145475458 -6.597425236597392 5.055588151076879
head 7.533856902846135 -2.6032083416205087 1.01851330413163
lclavicle -2.049053316616509e-17 4.258099200370037e-16
lhumerus -44.87167132105658 -9.413530161858334 90.89968717302787
lradius 92.41990787009556
lwrist 34.27170523402884
lhand -28.240947354185973 7.351004987809535
lfingers 7.125019999999998
lthumb -1.1233094852862069 35.08327715850105
rclavicle -2.0490533397056218e-17 4.2580991988477175e-16
rhumerus -46.54866215221592 14.428523775995252 -97.30651167968466
rradius 79.61522725059473
rwrist -21.161977996102813
rhand -18.6526637451274 41.119643351255675
rfingers 7.125019999999998
rthumb 6.847104683247147 11.368063073515131
54
root -1.0964291902639727 17.330033145274893 -0.5775351683076231 4.410271627234065 -2.6671777079191714 -1.2870402773252807
lfemur -13.459277926831884 7.14751898187982 -20.743883932339507
ltibia 66.15650080604988
lfoot -6.530931546818527 -10.245604754166695
ltoes -0.47899984493375136
rfemur -34.07055182079555 2.7293931721881375 26.131081989506736
rtibia 56.39400520822974
rfoot -8.602121029922177 -12.203955000671112
rtoes -0.735995932969594
lowerback 15.952831617179523 1.2550009973888334 0.9663945131340539
upperback -0.08116150321203319 1.9366492977640803 1.5556102298967387
thorax -9.233644951938112 0.9807145927457765 0.1092799989397537
lowerneck -21.50810007993985 -4.407735446639023 -1.4950923142336219
upperneck 12.3828072264084 -6.455398269644141 4.940999832006183
head 7.582307815159598 -2.5518547504819464 0.9884717013068691
lclavicle -2.0490533166139205e-17 4.2580992003691625e-16
lhumerus -44.34999253487972 -9.50551744026233 90.62660627576027
lradius 93.66693615716703
lwrist 34.483688116912305
lhand -28.40708154023826 6.105196762697899
lfingers 7.125019999999998
lthumb -0.6840109810327031 34.97406105773927
rclavicle -2.0490533396689847e-17 4.25809919884896e-16
rhumerus -47.34403263060526 14.31032735935982 -97.2146076379235
rradius 80.85150593178915
rwrist -21.59876891690102
rhand -18.569545553810404 41.64698513411658
rfingers 7.125019999999998
rthumb 6.90341289489964 11.846618693519765
55
root -1.0873109950795217 17.389860614581632 -0.004883238058427608 4.492292729717726 -2.73466062422504 -1.4966320424207955
lfemur -14.273709097691704 7.138100706331317 -20.271645037266662
ltibia 68.36302771444471
lfoot -6.167794832347909 -10.292413790256818
ltoes -2.89499404742501
rfemur -33.66044235658517 2.9564250784528587 26.575589392631255
rtibia 54.82367894315266
rfoot -7.611415201418546 -11.891735244811644
rtoes -2.761076657074283
lowerback 15.876004812887505 1.2978695883118003 1.2196441516382674
upperback -0.10798996664869209 2.097345531396881 1.7575181657370331
thorax -9.265575691816702 1.0513256949295362 0.024856932377898988
lowerneck -21.303370658348488 -4.347310756613149 -1.508173224688849
upperneck 12.521900995272238 -6.357572707835791 4.836593294416225
head 7.616256618492411 -2.5129355744821624 0.9675052416940275
lclavicle -2.0490533165717534e-17 4.258099200370077e-16
lhumerus -44.09098039117502 -9.375793150316198 90.44450640655701
lradius 95.10293571984613
lwrist 34.672907785433296
lhand -27.996393068386766 6.2093156983718325
lfingers 7.125019999999998
lthumb -0.10836844404045243 35.404169832310096
rclavicle -2.0490533392989313e-17 4.2580991988705975e-16
rhumerus -48.10254374377227 14.225032937617513 -97.09864404577563
rradius 82.16965813289053
rwrist -21.925882941844627
rhand -18.50581141981785 41.956885359857836
rfingers 7.125019999999998
rthumb 6.9975704681036595 12.172979937587149
56
root -1.0829783871668994 17.44119575132072 0.40277405936284527 4.563977684876036 -2.8276018724929664 -1.7063481836087264
lfemur -15.251768431450536 7.139983411472024 -19.812381030436875
ltibia 70.69500137484334
lfoot -5.250602444855176 -10.122631827086975
ltoes -4.37418255545024
rfemur -33.08556351940186 3.2415916804989604 27.000499223723054
rtibia 53.41603799774565
rfoot -6.717683770397483 -11.391547237205543
rtoes -4.411431342624455
lowerback 15.807606843554543 1.3569729176914507 1.473845336974741
upperback -0.14481949237422403 2.2673811392732848 1.9366447636656101
thorax -9.31743756091824 1.1144474572891712 -0.08058331121758663
lowerneck -21.131641552159195 -4.307836997177141 -1.5409205890785067
upperneck 12.703968093204267 -6.273970590793741 4.731708570772362
head 7.672949230641223 -2.4778994789344626 0.9434472649093253
lclavicle -2.0490533163829503e-17 4.2580992003813233e-16
lhumerus -43.92606232462706 -9.132006860211849 90.30477067012542
lradius 96.61137721092099
lwrist 34.92630381855777
lhand -27.33519467155025 6.366270204905431
lfingers 7.125019999999998
lthumb 0.4173025525753311 35.77501418779541
rclavicle -2.049053339430146e-17 4.258099198861689e-16
rhumerus -48.767841942250925 14.195347541067548 -96.96286156521097
rradius 83.38598046746226
rwrist -22.295273189973614
rhand -18.513960717813887 42.17562510253889
rfingers 7.125019999999998
rthumb 7.104242568498841 12.49525885666593
57
root -1.0642178704209313 17.514304435522018 0.8974266860248656 4.636361210739636 -2.9169679818558056 -1.9864713304753652
lfemur -16.251382700303996 7.132476606943317 -19.297849523913793
ltibia 73.10510941731366
lfoot -4.087213689314632 -9.964826029532757
ltoes -7.3672893603350635
rfemur -32.17860414083128 3.417665285710111 27.547210485641465
rtibia 52.05285049889249
rfoot -5.6153343292568865 -10.645736004390358
rtoes -5.607636004295334
lowerback 15.675307609215817 1.418656258434417 1.829149251498224
upperback -0.15851414031864902 2.4315788836792067 2.069808703138369
thorax -9.250032294138103 1.188171871592943 -0.22073765010991359
lowerneck -21.104381239292778 -4.277898462915643 -1.5489642001060355
upperneck 12.981482324956248 -6.215834524903899 4.625880674176038
head 7.765992311281964 -2.458916039443071 0.9137878130096846
lclavicle -2.0490533168636686e-17 4.258099200350146e-16
lhumerus -43.66342894139564 -9.06840887147861 90.18942296746481
lradius 97.96437214256892
lwrist 35.101241335820404
lhand -26.999938076187785 6.188938739374169
lfingers 7.125019999999998
lthumb 0.421450823022536 35.55911212657652
rclavicle -2.0490533392241846e-17 4.258099198874606e-16
rhumerus -49.32895731399525 14.18866634443269 -96.79963612053555
rradius 84.55799754688732
rwrist -22.768532917685402
rhand -18.62847752106343 42.362960577467476
rfingers 7.125019999999998
rthumb 7.097588729407086 12.700014688054122
